<svg id="b4594dbe-7922-4ad8-94ce-9e388c48e1eb" data-name="b7d507b3-067b-4fd6-a989-6edda3560b9b" xmlns="http://www.w3.org/2000/svg" width="254mm" height="254mm" viewBox="0 0 720 720">
  <rect width="720" height="720" style="fill: #fff"/>
  <g>
    <path d="M427.1,319c0-8.6-4.2-12.7-12.8-12.7q-54.3-.2-108.4,0c-8.6,0-12.9,4.1-12.9,12.7-.1,27.3-.1,54.5,0,81.8,0,8.7,4.1,12.6,12.8,12.7H414.2c8.7-.1,12.8-4,12.9-12.7Zm-9,80.6c0,3.9-1.4,5.1-5.2,5.1H307.2c-3.7,0-5.3-1.1-5.3-5.1.2-26.3.2-52.6,0-79.1,0-4.2,1.5-5.2,5.5-5.2,17.5.2,35.1.1,52.6.1s35.1.1,52.6-.1c3.9,0,5.6.9,5.5,5.2q-.2,39.5,0,79.1Z" transform="translate(0 0)" style="fill: #434343"/>
    <path d="M409.2,367.5a7.5,7.5,0,0,0-2.5-5.9c-8.1-7.9-16.1-15.8-24-24-2-2.1-3.1-2-5.2.1-8,8.2-16.1,16.2-24.3,24.3-2.8,2.8-5.4,7.4-8.6,7.8s-5.7-4.9-8.7-7.4l-.4-.4c-1.4-2-2.7-1.9-4.4-.1-4.5,4.7-8.8,9.5-13.7,13.6a17.9,17.9,0,0,0-6.6,16.3c.3,3,.8,4.1,4.1,4,14.9-.2,29.8-.1,44.8-.1s29.8-.1,44.7.2c4.1,0,5-1.2,4.8-5C408.9,383.1,409.1,375.3,409.2,367.5Z" transform="translate(0 0)" style="fill: #434343"/>
    <path d="M324.2,350.9A13.4,13.4,0,0,0,337.9,338v-.4A13.8,13.8,0,0,0,324.2,324a13.5,13.5,0,0,0-13.3,13.3C310.8,345.1,316.4,350.9,324.2,350.9Z" transform="translate(0 0)" style="fill: #434343"/>
  </g>
</svg>
